0
SECTION
2
HEADER
9
$INSUNITS
70
4
0
ENDSEC
0
SECTION
2
TABLES
0
TABLE
2
LTYPE
0
LTYPE
72
65
70
0
2
CONTINUOUS
3
______
73
0
40
0
0
LTYPE
72
65
70
0
2
DASHED
3
_ _ _ 
73
2
40
7.5
49
5
49
-2.5
0
LTYPE
72
65
70
0
2
DOTTED
3
. . . 
73
2
40
1.5
49
0.5
49
-1
0
ENDTAB
0
TABLE
2
LAYER
0
ENDTAB
0
ENDSEC
0
SECTION
2
ENTITIES
0
LINE
8
0
6
CONTINUOUS
10
119.4861488
20
-138.6133872
11
90.4743127
21
-109.6015511
0
LINE
8
0
6
CONTINUOUS
10
90.4743127
20
-102.5304833
11
117.415081
21
-75.5897149
0
LINE
8
0
6
CONTINUOUS
10
124.4861488
20
-75.5897149
11
129.049768
21
-80.1533341
0
LINE
8
0
6
CONTINUOUS
10
132.5853019
20
-81.6178002
11
168.8543189
21
-81.6178002
0
LINE
8
0
6
CONTINUOUS
10
172.3898528
20
-80.1533341
11
176.953472
21
-75.5897149
0
LINE
8
0
6
CONTINUOUS
10
184.0245398
20
-75.5897149
11
188.588159
21
-80.1533341
0
LINE
8
0
6
CONTINUOUS
10
192.1236929
20
-81.6178002
11
228.3927099
21
-81.6178002
0
LINE
8
0
6
CONTINUOUS
10
231.9282438
20
-80.1533341
11
236.491863
21
-75.5897149
0
LINE
8
0
6
CONTINUOUS
10
243.5629308
20
-75.5897149
11
270.5036991
21
-102.5304833
0
LINE
8
0
6
CONTINUOUS
10
270.5036991
20
-109.6015511
11
243.5629308
21
-136.5423194
0
LINE
8
0
6
CONTINUOUS
10
236.491863
20
-136.5423194
11
231.9282438
21
-131.9787002
0
LINE
8
0
6
CONTINUOUS
10
228.3927099
20
-130.5142341
11
192.1236929
21
-130.5142341
0
LINE
8
0
6
CONTINUOUS
10
188.588159
20
-131.9787002
11
181.953472
21
-138.6133872
0
LINE
8
0
6
CONTINUOUS
10
155.7049132
20
-140.0778533
11
178.4179381
21
-140.0778533
0
LINE
8
0
6
CONTINUOUS
10
155.7049132
20
-140.0778533
11
155.7049132
21
-130.1783584
0
LINE
8
0
6
CONTINUOUS
10
155.7049132
20
-130.1783584
11
145.7347076
21
-130.1783584
0
LINE
8
0
6
CONTINUOUS
10
145.7347076
20
-140.0778533
11
145.7347076
21
-130.1783584
0
LINE
8
0
6
CONTINUOUS
10
123.0216827
20
-140.0778533
11
145.7347076
21
-140.0778533
0
ARC
8
0
6
CONTINUOUS
10
94.0098466
20
-106.0660172
40
5
50
135
51
225
0
ARC
8
0
6
CONTINUOUS
10
120.9506149
20
-79.1252488
40
5
50
45
51
135
0
ARC
8
0
6
CONTINUOUS
10
132.5853019
20
-76.6178002
40
5
50
225
51
270
0
ARC
8
0
6
CONTINUOUS
10
168.8543189
20
-76.6178002
40
5
50
270
51
315
0
ARC
8
0
6
CONTINUOUS
10
180.4890059
20
-79.1252488
40
5
50
45
51
135
0
ARC
8
0
6
CONTINUOUS
10
192.1236929
20
-76.6178002
40
5
50
225
51
270
0
ARC
8
0
6
CONTINUOUS
10
228.3927099
20
-76.6178002
40
5
50
270
51
315
0
ARC
8
0
6
CONTINUOUS
10
240.0273969
20
-79.1252488
40
5
50
45
51
135
0
ARC
8
0
6
CONTINUOUS
10
266.9681652
20
-106.0660172
40
5
50
315
51
45
0
ARC
8
0
6
CONTINUOUS
10
240.0273969
20
-133.0067855
40
5
50
225
51
315
0
ARC
8
0
6
CONTINUOUS
10
228.3927099
20
-135.5142341
40
5
50
45
51
90
0
ARC
8
0
6
CONTINUOUS
10
192.1236929
20
-135.5142341
40
5
50
90
51
135
0
ARC
8
0
6
CONTINUOUS
10
178.4179381
20
-135.0778533
40
5
50
270
51
315
0
ARC
8
0
6
CONTINUOUS
10
123.0216827
20
-135.0778533
40
5
50
225
51
270
0
ENDSEC
0
EOF