0
SECTION
2
HEADER
9
$INSUNITS
70
4
0
ENDSEC
0
SECTION
2
TABLES
0
TABLE
2
LTYPE
0
LTYPE
72
65
70
0
2
CONTINUOUS
3
______
73
0
40
0
0
LTYPE
72
65
70
0
2
DASHED
3
_ _ _ 
73
2
40
7.5
49
5
49
-2.5
0
LTYPE
72
65
70
0
2
DOTTED
3
. . . 
73
2
40
1.5
49
0.5
49
-1
0
ENDTAB
0
TABLE
2
LAYER
0
ENDTAB
0
ENDSEC
0
SECTION
2
ENTITIES
0
LINE
8
0
6
CONTINUOUS
10
119.4861488
20
-138.6133872
11
90.4743127
21
-109.6015511
0
LINE
8
0
6
CONTINUOUS
10
90.4743127
20
-102.5304833
11
117.415081
21
-75.5897149
0
LINE
8
0
6
CONTINUOUS
10
124.4861488
20
-75.5897149
11
129.049768
21
-80.1533341
0
LINE
8
0
6
CONTINUOUS
10
132.5853019
20
-81.6178002
11
168.8543189
21
-81.6178002
0
LINE
8
0
6
CONTINUOUS
10
172.3898528
20
-80.1533341
11
176.953472
21
-75.5897149
0
LINE
8
0
6
CONTINUOUS
10
184.0245398
20
-75.5897149
11
188.588159
21
-80.1533341
0
LINE
8
0
6
CONTINUOUS
10
192.1236929
20
-81.6178002
11
228.3927099
21
-81.6178002
0
LINE
8
0
6
CONTINUOUS
10
231.9282438
20
-80.1533341
11
236.491863
21
-75.5897149
0
LINE
8
0
6
CONTINUOUS
10
243.5629308
20
-75.5897149
11
270.5036991
21
-102.5304833
0
LINE
8
0
6
CONTINUOUS
10
270.5036991
20
-109.6015511
11
243.5629308
21
-136.5423194
0
LINE
8
0
6
CONTINUOUS
10
236.491863
20
-136.5423194
11
231.9282438
21
-131.9787002
0
LINE
8
0
6
CONTINUOUS
10
228.3927099
20
-130.5142341
11
192.1236929
21
-130.5142341
0
LINE
8
0
6
CONTINUOUS
10
188.588159
20
-131.9787002
11
181.953472
21
-138.6133872
0
LINE
8
0
6
CONTINUOUS
10
178.4179381
20
-140.0778533
11
123.0216827
21
-140.0778533
0
ARC
8
0
6
CONTINUOUS
10
94.0098466
20
-106.0660172
40
5
50
135
51
225
0
ARC
8
0
6
CONTINUOUS
10
120.9506149
20
-79.1252488
40
5
50
45
51
135
0
ARC
8
0
6
CONTINUOUS
10
132.5853019
20
-76.6178002
40
5
50
225
51
270
0
ARC
8
0
6
CONTINUOUS
10
168.8543189
20
-76.6178002
40
5
50
270
51
315
0
ARC
8
0
6
CONTINUOUS
10
180.4890059
20
-79.1252488
40
5
50
45
51
135
0
ARC
8
0
6
CONTINUOUS
10
192.1236929
20
-76.6178002
40
5
50
225
51
270
0
ARC
8
0
6
CONTINUOUS
10
228.3927099
20
-76.6178002
40
5
50
270
51
315
0
ARC
8
0
6
CONTINUOUS
10
240.0273969
20
-79.1252488
40
5
50
45
51
135
0
ARC
8
0
6
CONTINUOUS
10
266.9681652
20
-106.0660172
40
5
50
315
51
45
0
ARC
8
0
6
CONTINUOUS
10
240.0273969
20
-133.0067855
40
5
50
225
51
315
0
ARC
8
0
6
CONTINUOUS
10
228.3927099
20
-135.5142341
40
5
50
45
51
90
0
ARC
8
0
6
CONTINUOUS
10
192.1236929
20
-135.5142341
40
5
50
90
51
135
0
ARC
8
0
6
CONTINUOUS
10
178.4179381
20
-135.0778533
40
5
50
270
51
315
0
ARC
8
0
6
CONTINUOUS
10
123.0216827
20
-135.0778533
40
5
50
225
51
270
0
LINE
8
0
6
CONTINUOUS
10
92.595633
20
-106.0660172
11
106.0660172
21
-119.5364014
0
LINE
8
0
6
CONTINUOUS
10
106.0660172
20
-119.5364014
11
119.4529388
21
-106.1494798
0
LINE
8
0
6
CONTINUOUS
10
119.4529388
20
-105.9825546
11
106.0660172
21
-92.595633
0
LINE
8
0
6
CONTINUOUS
10
106.0660172
20
-92.595633
11
92.595633
21
-106.0660172
0
LINE
8
0
6
CONTINUOUS
10
107.4802307
20
-91.1814194
11
120.8671524
21
-104.568341
0
LINE
8
0
6
CONTINUOUS
10
121.0340775
20
-104.568341
11
134.4209991
21
-91.1814194
0
LINE
8
0
6
CONTINUOUS
10
134.4209991
20
-91.1814194
11
120.9506149
21
-77.7110352
0
LINE
8
0
6
CONTINUOUS
10
120.9506149
20
-77.7110352
11
107.4802307
21
-91.1814194
0
LINE
8
0
6
CONTINUOUS
10
107.4802307
20
-120.9506149
11
120.9506149
21
-134.4209991
0
LINE
8
0
6
CONTINUOUS
10
120.9506149
20
-134.4209991
11
134.4209991
21
-120.9506149
0
LINE
8
0
6
CONTINUOUS
10
134.4209991
20
-120.9506149
11
121.0340776
21
-107.5636934
0
LINE
8
0
6
CONTINUOUS
10
120.8671522
20
-107.5636934
11
107.4802307
21
-120.9506149
0
LINE
8
0
6
CONTINUOUS
10
122.4482912
20
-106.1494798
11
135.8352127
21
-119.5364014
0
LINE
8
0
6
CONTINUOUS
10
135.8352127
20
-119.5364014
11
149.3055969
21
-106.0660172
0
LINE
8
0
6
CONTINUOUS
10
149.3055969
20
-106.0660172
11
135.8352127
21
-92.595633
0
LINE
8
0
6
CONTINUOUS
10
135.8352127
20
-92.595633
11
122.4482912
21
-105.9825546
0
LINE
8
0
6
CONTINUOUS
10
152.134024
20
-106.0660172
11
165.6044082
21
-119.5364014
0
LINE
8
0
6
CONTINUOUS
10
165.6044082
20
-119.5364014
11
179.0747924
21
-106.0660172
0
LINE
8
0
6
CONTINUOUS
10
179.0747924
20
-106.0660172
11
165.6044082
21
-92.595633
0
LINE
8
0
6
CONTINUOUS
10
165.6044082
20
-92.595633
11
152.134024
21
-106.0660172
0
LINE
8
0
6
CONTINUOUS
10
167.0186217
20
-91.1814194
11
180.4890059
21
-104.6518036
0
LINE
8
0
6
CONTINUOUS
10
180.4890059
20
-104.6518036
11
193.9593901
21
-91.1814194
0
LINE
8
0
6
CONTINUOUS
10
193.9593901
20
-91.1814194
11
180.4890059
21
-77.7110352
0
LINE
8
0
6
CONTINUOUS
10
180.4890059
20
-77.7110352
11
167.0186217
21
-91.1814194
0
LINE
8
0
6
CONTINUOUS
10
167.0186217
20
-120.9506149
11
180.4890059
21
-134.4209991
0
LINE
8
0
6
CONTINUOUS
10
180.4890059
20
-134.4209991
11
193.9593901
21
-120.9506149
0
LINE
8
0
6
CONTINUOUS
10
193.9593901
20
-120.9506149
11
180.4890059
21
-107.4802307
0
LINE
8
0
6
CONTINUOUS
10
180.4890059
20
-107.4802307
11
167.0186217
21
-120.9506149
0
LINE
8
0
6
CONTINUOUS
10
181.9032194
20
-106.0660172
11
195.3736036
21
-119.5364014
0
LINE
8
0
6
CONTINUOUS
10
195.3736036
20
-119.5364014
11
208.8439878
21
-106.0660172
0
LINE
8
0
6
CONTINUOUS
10
208.8439878
20
-106.0660172
11
195.3736036
21
-92.595633
0
LINE
8
0
6
CONTINUOUS
10
195.3736036
20
-92.595633
11
181.9032194
21
-106.0660172
0
LINE
8
0
6
CONTINUOUS
10
211.6724149
20
-106.0660172
11
225.1427991
21
-119.5364014
0
LINE
8
0
6
CONTINUOUS
10
225.1427991
20
-119.5364014
11
238.5297207
21
-106.1494798
0
LINE
8
0
6
CONTINUOUS
10
238.5297207
20
-105.9825546
11
225.1427991
21
-92.595633
0
LINE
8
0
6
CONTINUOUS
10
225.1427991
20
-92.595633
11
211.6724149
21
-106.0660172
0
LINE
8
0
6
CONTINUOUS
10
226.5570127
20
-91.1814194
11
239.9439344
21
-104.568341
0
LINE
8
0
6
CONTINUOUS
10
240.1108595
20
-104.568341
11
253.4977811
21
-91.1814194
0
LINE
8
0
6
CONTINUOUS
10
253.4977811
20
-91.1814194
11
240.0273969
21
-77.7110352
0
LINE
8
0
6
CONTINUOUS
10
240.0273969
20
-77.7110352
11
226.5570127
21
-91.1814194
0
LINE
8
0
6
CONTINUOUS
10
226.5570127
20
-120.9506149
11
240.0273969
21
-134.4209991
0
LINE
8
0
6
CONTINUOUS
10
240.0273969
20
-134.4209991
11
253.4977811
21
-120.9506149
0
LINE
8
0
6
CONTINUOUS
10
253.4977811
20
-120.9506149
11
240.1108597
21
-107.5636934
0
LINE
8
0
6
CONTINUOUS
10
239.9439343
20
-107.5636934
11
226.5570127
21
-120.9506149
0
LINE
8
0
6
CONTINUOUS
10
241.5250731
20
-106.1494798
11
254.9119946
21
-119.5364014
0
LINE
8
0
6
CONTINUOUS
10
254.9119946
20
-119.5364014
11
268.3823788
21
-106.0660172
0
LINE
8
0
6
CONTINUOUS
10
268.3823788
20
-106.0660172
11
254.9119946
21
-92.595633
0
LINE
8
0
6
CONTINUOUS
10
254.9119946
20
-92.595633
11
241.5250731
21
-105.9825546
0
ARC
8
0
6
CONTINUOUS
10
120.950615
20
-106.0660172
40
1.5
50
183.1896838
51
266.8103086
0
ARC
8
0
6
CONTINUOUS
10
120.950615
20
-106.0660172
40
1.5
50
453.1896838
51
536.8103162
0
ARC
8
0
6
CONTINUOUS
10
120.950615
20
-106.0660172
40
1.5
50
273.1896838
51
356.8103162
0
ARC
8
0
6
CONTINUOUS
10
120.950615
20
-106.0660172
40
1.5
50
363.1896838
51
446.81032
0
ARC
8
0
6
CONTINUOUS
10
240.0273969
20
-106.0660172
40
1.5
50
183.1896838
51
266.8103162
0
ARC
8
0
6
CONTINUOUS
10
240.0273969
20
-106.0660172
40
1.5
50
453.18968
51
536.8103162
0
ARC
8
0
6
CONTINUOUS
10
240.0273969
20
-106.0660172
40
1.5
50
273.1896914
51
356.8103162
0
ARC
8
0
6
CONTINUOUS
10
240.0273969
20
-106.0660172
40
1.5
50
363.1896838
51
446.8103162
0
ENDSEC
0
EOF