0
SECTION
2
HEADER
9
$INSUNITS
70
4
0
ENDSEC
0
SECTION
2
TABLES
0
TABLE
2
LTYPE
0
LTYPE
72
65
70
0
2
CONTINUOUS
3
______
73
0
40
0
0
LTYPE
72
65
70
0
2
DASHED
3
_ _ _ 
73
2
40
7.5
49
5
49
-2.5
0
LTYPE
72
65
70
0
2
DOTTED
3
. . . 
73
2
40
1.5
49
0.5
49
-1
0
ENDTAB
0
TABLE
2
LAYER
0
ENDTAB
0
ENDSEC
0
SECTION
2
ENTITIES
0
LINE
8
0
6
CONTINUOUS
10
92.595633
20
-106.0660172
11
106.0660172
21
-119.5364014
0
LINE
8
0
6
CONTINUOUS
10
106.0660172
20
-119.5364014
11
119.5364014
21
-106.0660172
0
LINE
8
0
6
CONTINUOUS
10
119.5364014
20
-106.0660172
11
106.0660172
21
-92.595633
0
LINE
8
0
6
CONTINUOUS
10
106.0660172
20
-92.595633
11
92.595633
21
-106.0660172
0
LINE
8
0
6
CONTINUOUS
10
107.4802307
20
-91.1814194
11
120.9506149
21
-104.6518036
0
LINE
8
0
6
CONTINUOUS
10
120.9506149
20
-104.6518036
11
134.4209991
21
-91.1814194
0
LINE
8
0
6
CONTINUOUS
10
134.4209991
20
-91.1814194
11
120.9506149
21
-77.7110352
0
LINE
8
0
6
CONTINUOUS
10
120.9506149
20
-77.7110352
11
107.4802307
21
-91.1814194
0
LINE
8
0
6
CONTINUOUS
10
107.4802307
20
-120.9506149
11
120.9506149
21
-134.4209991
0
LINE
8
0
6
CONTINUOUS
10
120.9506149
20
-134.4209991
11
134.4209991
21
-120.9506149
0
LINE
8
0
6
CONTINUOUS
10
134.4209991
20
-120.9506149
11
120.9506149
21
-107.4802307
0
LINE
8
0
6
CONTINUOUS
10
120.9506149
20
-107.4802307
11
107.4802307
21
-120.9506149
0
LINE
8
0
6
CONTINUOUS
10
122.3648285
20
-106.0660172
11
135.8352127
21
-119.5364014
0
LINE
8
0
6
CONTINUOUS
10
135.8352127
20
-119.5364014
11
149.3055969
21
-106.0660172
0
LINE
8
0
6
CONTINUOUS
10
149.3055969
20
-106.0660172
11
135.8352127
21
-92.595633
0
LINE
8
0
6
CONTINUOUS
10
135.8352127
20
-92.595633
11
122.3648285
21
-106.0660172
0
LINE
8
0
6
CONTINUOUS
10
152.134024
20
-106.0660172
11
165.6044082
21
-119.5364014
0
LINE
8
0
6
CONTINUOUS
10
165.6044082
20
-119.5364014
11
179.0747924
21
-106.0660172
0
LINE
8
0
6
CONTINUOUS
10
179.0747924
20
-106.0660172
11
165.6044082
21
-92.595633
0
LINE
8
0
6
CONTINUOUS
10
165.6044082
20
-92.595633
11
152.134024
21
-106.0660172
0
LINE
8
0
6
CONTINUOUS
10
167.0186217
20
-91.1814194
11
180.4890059
21
-104.6518036
0
LINE
8
0
6
CONTINUOUS
10
180.4890059
20
-104.6518036
11
193.9593901
21
-91.1814194
0
LINE
8
0
6
CONTINUOUS
10
193.9593901
20
-91.1814194
11
180.4890059
21
-77.7110352
0
LINE
8
0
6
CONTINUOUS
10
180.4890059
20
-77.7110352
11
167.0186217
21
-91.1814194
0
LINE
8
0
6
CONTINUOUS
10
167.0186217
20
-120.9506149
11
180.4890059
21
-134.4209991
0
LINE
8
0
6
CONTINUOUS
10
180.4890059
20
-134.4209991
11
193.9593901
21
-120.9506149
0
LINE
8
0
6
CONTINUOUS
10
193.9593901
20
-120.9506149
11
180.4890059
21
-107.4802307
0
LINE
8
0
6
CONTINUOUS
10
180.4890059
20
-107.4802307
11
167.0186217
21
-120.9506149
0
LINE
8
0
6
CONTINUOUS
10
181.9032194
20
-106.0660172
11
195.3736036
21
-119.5364014
0
LINE
8
0
6
CONTINUOUS
10
195.3736036
20
-119.5364014
11
208.8439878
21
-106.0660172
0
LINE
8
0
6
CONTINUOUS
10
208.8439878
20
-106.0660172
11
195.3736036
21
-92.595633
0
LINE
8
0
6
CONTINUOUS
10
195.3736036
20
-92.595633
11
181.9032194
21
-106.0660172
0
LINE
8
0
6
CONTINUOUS
10
211.6724149
20
-106.0660172
11
225.1427991
21
-119.5364014
0
LINE
8
0
6
CONTINUOUS
10
225.1427991
20
-119.5364014
11
238.6131833
21
-106.0660172
0
LINE
8
0
6
CONTINUOUS
10
238.6131833
20
-106.0660172
11
225.1427991
21
-92.595633
0
LINE
8
0
6
CONTINUOUS
10
225.1427991
20
-92.595633
11
211.6724149
21
-106.0660172
0
LINE
8
0
6
CONTINUOUS
10
226.5570127
20
-91.1814194
11
240.0273969
21
-104.6518036
0
LINE
8
0
6
CONTINUOUS
10
240.0273969
20
-104.6518036
11
253.4977811
21
-91.1814194
0
LINE
8
0
6
CONTINUOUS
10
253.4977811
20
-91.1814194
11
240.0273969
21
-77.7110352
0
LINE
8
0
6
CONTINUOUS
10
240.0273969
20
-77.7110352
11
226.5570127
21
-91.1814194
0
LINE
8
0
6
CONTINUOUS
10
226.5570127
20
-120.9506149
11
240.0273969
21
-134.4209991
0
LINE
8
0
6
CONTINUOUS
10
240.0273969
20
-134.4209991
11
253.4977811
21
-120.9506149
0
LINE
8
0
6
CONTINUOUS
10
253.4977811
20
-120.9506149
11
240.0273969
21
-107.4802307
0
LINE
8
0
6
CONTINUOUS
10
240.0273969
20
-107.4802307
11
226.5570127
21
-120.9506149
0
LINE
8
0
6
CONTINUOUS
10
241.4416104
20
-106.0660172
11
254.9119946
21
-119.5364014
0
LINE
8
0
6
CONTINUOUS
10
254.9119946
20
-119.5364014
11
268.3823788
21
-106.0660172
0
LINE
8
0
6
CONTINUOUS
10
268.3823788
20
-106.0660172
11
254.9119946
21
-92.595633
0
LINE
8
0
6
CONTINUOUS
10
254.9119946
20
-92.595633
11
241.4416104
21
-106.0660172
0
ENDSEC
0
EOF