0
SECTION
2
HEADER
9
$INSUNITS
70
4
0
ENDSEC
0
SECTION
2
TABLES
0
TABLE
2
LTYPE
0
LTYPE
72
65
70
0
2
CONTINUOUS
3
______
73
0
40
0
0
LTYPE
72
65
70
0
2
DASHED
3
_ _ _ 
73
2
40
7.5
49
5
49
-2.5
0
LTYPE
72
65
70
0
2
DOTTED
3
. . . 
73
2
40
1.5
49
0.5
49
-1
0
ENDTAB
0
TABLE
2
LAYER
0
ENDTAB
0
ENDSEC
0
SECTION
2
ENTITIES
0
LINE
8
0
6
CONTINUOUS
10
91.1814195
20
-106.0660172
11
120.9506149
21
-135.8352126
0
LINE
8
0
6
CONTINUOUS
10
106.0660172
20
-91.1814195
11
91.1814195
21
-106.0660172
0
LINE
8
0
6
CONTINUOUS
10
135.8352126
20
-91.1814194
11
120.9506149
21
-76.2968217
0
LINE
8
0
6
CONTINUOUS
10
120.9506149
20
-76.2968217
11
106.0660172
21
-91.1814194
0
LINE
8
0
6
CONTINUOUS
10
120.9506149
20
-135.8352126
11
135.8352126
21
-120.9506149
0
LINE
8
0
6
CONTINUOUS
10
135.8352127
20
-120.9506149
11
150.7198104
21
-106.0660172
0
LINE
8
0
6
CONTINUOUS
10
150.7198104
20
-106.0660172
11
135.8352127
21
-91.1814195
0
LINE
8
0
6
CONTINUOUS
10
150.7198105
20
-106.0660172
11
180.4890059
21
-135.8352126
0
LINE
8
0
6
CONTINUOUS
10
165.6044082
20
-91.1814195
11
150.7198105
21
-106.0660172
0
LINE
8
0
6
CONTINUOUS
10
195.3736036
20
-91.1814194
11
180.4890059
21
-76.2968217
0
LINE
8
0
6
CONTINUOUS
10
180.4890059
20
-76.2968217
11
165.6044082
21
-91.1814194
0
LINE
8
0
6
CONTINUOUS
10
180.4890059
20
-135.8352126
11
210.2582013
21
-106.0660172
0
LINE
8
0
6
CONTINUOUS
10
210.2582013
20
-106.0660172
11
195.3736036
21
-91.1814195
0
LINE
8
0
6
CONTINUOUS
10
210.2582014
20
-106.0660172
11
225.1427991
21
-120.9506149
0
LINE
8
0
6
CONTINUOUS
10
225.1427991
20
-91.1814195
11
210.2582014
21
-106.0660172
0
LINE
8
0
6
CONTINUOUS
10
254.9119946
20
-91.1814194
11
240.0273969
21
-76.2968217
0
LINE
8
0
6
CONTINUOUS
10
240.0273969
20
-76.2968217
11
225.1427992
21
-91.1814194
0
LINE
8
0
6
CONTINUOUS
10
225.1427992
20
-120.9506149
11
240.0273969
21
-135.8352126
0
LINE
8
0
6
CONTINUOUS
10
240.0273969
20
-135.8352126
11
269.7965923
21
-106.0660172
0
LINE
8
0
6
CONTINUOUS
10
269.7965923
20
-106.0660172
11
254.9119946
21
-91.1814195
0
ENDSEC
0
EOF