0
SECTION
2
HEADER
9
$INSUNITS
70
4
0
ENDSEC
0
SECTION
2
TABLES
0
TABLE
2
LTYPE
0
LTYPE
72
65
70
0
2
CONTINUOUS
3
______
73
0
40
0
0
LTYPE
72
65
70
0
2
DASHED
3
_ _ _ 
73
2
40
7.5
49
5
49
-2.5
0
LTYPE
72
65
70
0
2
DOTTED
3
. . . 
73
2
40
1.5
49
0.5
49
-1
0
ENDTAB
0
TABLE
2
LAYER
0
ENDTAB
0
ENDSEC
0
SECTION
2
ENTITIES
0
LINE
8
0
6
CONTINUOUS
10
106.0660172
20
-93.3380951
11
118.7939393
21
-106.0660172
0
LINE
8
0
6
CONTINUOUS
10
118.7939393
20
-106.0660172
11
106.0660172
21
-118.7939393
0
LINE
8
0
6
CONTINUOUS
10
106.0660172
20
-118.7939393
11
93.3380951
21
-106.0660172
0
LINE
8
0
6
CONTINUOUS
10
93.3380951
20
-106.0660172
11
106.0660172
21
-93.3380951
0
LINE
8
0
6
CONTINUOUS
10
120.9506149
20
-78.4534973
11
133.678537
21
-91.1814194
0
LINE
8
0
6
CONTINUOUS
10
133.678537
20
-91.1814194
11
120.9506149
21
-103.9093415
0
LINE
8
0
6
CONTINUOUS
10
120.9506149
20
-103.9093415
11
108.2226928
21
-91.1814194
0
LINE
8
0
6
CONTINUOUS
10
108.2226928
20
-91.1814194
11
120.9506149
21
-78.4534973
0
LINE
8
0
6
CONTINUOUS
10
120.9506149
20
-108.2226928
11
133.678537
21
-120.9506149
0
LINE
8
0
6
CONTINUOUS
10
133.678537
20
-120.9506149
11
120.9506149
21
-133.678537
0
LINE
8
0
6
CONTINUOUS
10
120.9506149
20
-133.678537
11
108.2226928
21
-120.9506149
0
LINE
8
0
6
CONTINUOUS
10
108.2226928
20
-120.9506149
11
120.9506149
21
-108.2226928
0
LINE
8
0
6
CONTINUOUS
10
135.8352127
20
-93.3380951
11
148.5631348
21
-106.0660172
0
LINE
8
0
6
CONTINUOUS
10
148.5631348
20
-106.0660172
11
135.8352127
21
-118.7939393
0
LINE
8
0
6
CONTINUOUS
10
135.8352127
20
-118.7939393
11
123.1072906
21
-106.0660172
0
LINE
8
0
6
CONTINUOUS
10
123.1072906
20
-106.0660172
11
135.8352127
21
-93.3380951
0
LINE
8
0
6
CONTINUOUS
10
165.6044082
20
-93.3380951
11
178.3323303
21
-106.0660172
0
LINE
8
0
6
CONTINUOUS
10
178.3323303
20
-106.0660172
11
165.6044082
21
-118.7939393
0
LINE
8
0
6
CONTINUOUS
10
165.6044082
20
-118.7939393
11
152.8764861
21
-106.0660172
0
LINE
8
0
6
CONTINUOUS
10
152.8764861
20
-106.0660172
11
165.6044082
21
-93.3380951
0
LINE
8
0
6
CONTINUOUS
10
180.4890059
20
-78.4534973
11
193.216928
21
-91.1814194
0
LINE
8
0
6
CONTINUOUS
10
193.216928
20
-91.1814194
11
180.4890059
21
-103.9093415
0
LINE
8
0
6
CONTINUOUS
10
180.4890059
20
-103.9093415
11
167.7610838
21
-91.1814194
0
LINE
8
0
6
CONTINUOUS
10
167.7610838
20
-91.1814194
11
180.4890059
21
-78.4534973
0
LINE
8
0
6
CONTINUOUS
10
180.4890059
20
-108.2226928
11
193.216928
21
-120.9506149
0
LINE
8
0
6
CONTINUOUS
10
193.216928
20
-120.9506149
11
180.4890059
21
-133.678537
0
LINE
8
0
6
CONTINUOUS
10
180.4890059
20
-133.678537
11
167.7610838
21
-120.9506149
0
LINE
8
0
6
CONTINUOUS
10
167.7610838
20
-120.9506149
11
180.4890059
21
-108.2226928
0
LINE
8
0
6
CONTINUOUS
10
195.3736036
20
-93.3380951
11
208.1015257
21
-106.0660172
0
LINE
8
0
6
CONTINUOUS
10
208.1015257
20
-106.0660172
11
195.3736036
21
-118.7939393
0
LINE
8
0
6
CONTINUOUS
10
195.3736036
20
-118.7939393
11
182.6456815
21
-106.0660172
0
LINE
8
0
6
CONTINUOUS
10
182.6456815
20
-106.0660172
11
195.3736036
21
-93.3380951
0
LINE
8
0
6
CONTINUOUS
10
225.1427991
20
-93.3380951
11
237.8707212
21
-106.0660172
0
LINE
8
0
6
CONTINUOUS
10
237.8707212
20
-106.0660172
11
225.1427991
21
-118.7939393
0
LINE
8
0
6
CONTINUOUS
10
225.1427991
20
-118.7939393
11
212.414877
21
-106.0660172
0
LINE
8
0
6
CONTINUOUS
10
212.414877
20
-106.0660172
11
225.1427991
21
-93.3380951
0
LINE
8
0
6
CONTINUOUS
10
240.0273969
20
-78.4534973
11
252.755319
21
-91.1814194
0
LINE
8
0
6
CONTINUOUS
10
252.755319
20
-91.1814194
11
240.0273969
21
-103.9093415
0
LINE
8
0
6
CONTINUOUS
10
240.0273969
20
-103.9093415
11
227.2994748
21
-91.1814194
0
LINE
8
0
6
CONTINUOUS
10
227.2994748
20
-91.1814194
11
240.0273969
21
-78.4534973
0
LINE
8
0
6
CONTINUOUS
10
240.0273969
20
-108.2226928
11
252.755319
21
-120.9506149
0
LINE
8
0
6
CONTINUOUS
10
252.755319
20
-120.9506149
11
240.0273969
21
-133.678537
0
LINE
8
0
6
CONTINUOUS
10
240.0273969
20
-133.678537
11
227.2994748
21
-120.9506149
0
LINE
8
0
6
CONTINUOUS
10
227.2994748
20
-120.9506149
11
240.0273969
21
-108.2226928
0
LINE
8
0
6
CONTINUOUS
10
254.9119946
20
-93.3380951
11
267.6399167
21
-106.0660172
0
LINE
8
0
6
CONTINUOUS
10
267.6399167
20
-106.0660172
11
254.9119946
21
-118.7939393
0
LINE
8
0
6
CONTINUOUS
10
254.9119946
20
-118.7939393
11
242.1840725
21
-106.0660172
0
LINE
8
0
6
CONTINUOUS
10
242.1840725
20
-106.0660172
11
254.9119946
21
-93.3380951
0
ENDSEC
0
EOF