<svg width="174.302mm" height="55.225mm" viewBox="0 0 174.302 55.225" xmlns="http://www.w3.org/2000/svg"><g id="svgGroup" stroke-linecap="round" fill-rule="evenodd" font-size="9pt" stroke="#000" stroke-width="0.25mm" fill="none" style="stroke:#000;stroke-width:0.25mm;fill:none"><path d="M 12.728 14.885 L 25.456 27.613 L 12.728 40.34 L 0 27.613 L 12.728 14.885 Z M 27.613 0 L 40.34 12.728 L 27.613 25.456 L 14.885 12.728 L 27.613 0 Z M 27.613 29.769 L 40.34 42.497 L 27.613 55.225 L 14.885 42.497 L 27.613 29.769 Z M 42.497 14.885 L 55.225 27.613 L 42.497 40.34 L 29.769 27.613 L 42.497 14.885 Z M 72.266 14.885 L 84.994 27.613 L 72.266 40.34 L 59.538 27.613 L 72.266 14.885 Z M 87.151 0 L 99.879 12.728 L 87.151 25.456 L 74.423 12.728 L 87.151 0 Z M 87.151 29.769 L 99.879 42.497 L 87.151 55.225 L 74.423 42.497 L 87.151 29.769 Z M 102.036 14.885 L 114.763 27.613 L 102.036 40.34 L 89.308 27.613 L 102.036 14.885 Z M 131.805 14.885 L 144.533 27.613 L 131.805 40.34 L 119.077 27.613 L 131.805 14.885 Z M 146.689 0 L 159.417 12.728 L 146.689 25.456 L 133.961 12.728 L 146.689 0 Z M 146.689 29.769 L 159.417 42.497 L 146.689 55.225 L 133.961 42.497 L 146.689 29.769 Z M 161.574 14.885 L 174.302 27.613 L 161.574 40.34 L 148.846 27.613 L 161.574 14.885 Z" vector-effect="non-scaling-stroke"/></g></svg>